<?xml version="1.0" encoding="utf-8"?>
<!-- Generator: Adobe Illustrator 16.0.0, SVG Export Plug-In . SVG Version: 6.00 Build 0)  -->
<!DOCTYPE svg PUBLIC "-//W3C//DTD SVG 1.1//EN" "http://www.w3.org/Graphics/SVG/1.1/DTD/svg11.dtd">
<svg version="1.1" id="Layer_1" xmlns="http://www.w3.org/2000/svg" xmlns:xlink="http://www.w3.org/1999/xlink" x="0px" y="0px"
	 width="148px" height="192px" viewBox="0 0 148 192" enable-background="new 0 0 148 192" xml:space="preserve">
<g>
	<g>
		<linearGradient id="SVGID_1_" gradientUnits="userSpaceOnUse" x1="74.2847" y1="-11.7051" x2="74.2847" y2="183.5626">
			<stop  offset="0" style="stop-color:#BBC1DE"/>
			<stop  offset="0.5269" style="stop-color:#304367"/>
			<stop  offset="1" style="stop-color:#2C4064"/>
		</linearGradient>
		<path fill="url(#SVGID_1_)" stroke="#6A7493" stroke-miterlimit="10" d="M94.269,109.838c3.676-2.077,7.102-4.739,10.139-7.983
			c3.039-3.245,5.469-6.839,7.299-10.643l16.283,14.39c0.869,0.813,1.588,1.726,2.178,2.695
			c8.693-12.826,15.084-25.158,15.084-34.582c0-39.195-31.773-70.968-70.967-70.968c-39.194,0-70.968,31.773-70.968,70.968
			c0,26.048,47.614,73.225,59.769,93.107c6.134,10.031,11.199,17.818,11.199,17.818s4.843-7.366,11.2-17.818
			c5.51-9.063,18.321-23.77,30.677-39.538c-2.033-0.509-3.969-1.522-5.607-3.056L94.269,109.838z"/>
		<path fill="#FFFFFF" d="M127.99,105.602l-16.283-14.39c-1.83,3.804-4.26,7.398-7.299,10.643
			c-3.037,3.245-6.463,5.906-10.139,7.983l16.285,14.391c1.639,1.534,3.574,2.547,5.607,3.056
			c4.902-6.258,9.73-12.682,14.006-18.988C129.578,107.328,128.859,106.416,127.99,105.602z"/>
	</g>
	<circle fill="#FFFFFF" cx="74.285" cy="73.715" r="42.58"/>
	<path fill="none" stroke="#616AA3" stroke-width="12" stroke-linecap="round" stroke-miterlimit="10" d="M43.415,73.715
		c0-17.05,13.821-30.871,30.87-30.871"/>
	<circle fill="#FFFFFF" cx="74.285" cy="73.715" r="46.089"/>
	<g>
		<linearGradient id="SVGID_2_" gradientUnits="userSpaceOnUse" x1="74.2847" y1="32.2041" x2="74.2847" y2="117.0687">
			<stop  offset="0" style="stop-color:#BBC1DE"/>
			<stop  offset="0.5269" style="stop-color:#304367"/>
			<stop  offset="1" style="stop-color:#2C4064"/>
		</linearGradient>
		<path fill="url(#SVGID_2_)" d="M74.285,115.582c-23.085,0-41.867-18.781-41.867-41.866c0-23.085,18.782-41.867,41.867-41.867
			c23.086,0,41.867,18.782,41.867,41.867C116.152,96.8,97.371,115.582,74.285,115.582z M74.285,38.768
			c-19.271,0-34.947,15.677-34.947,34.948c0,19.27,15.677,34.947,34.947,34.947c19.27,0,34.947-15.678,34.947-34.947
			C109.232,54.445,93.554,38.768,74.285,38.768z"/>
	</g>
	<g>
		<path fill="#6A7493" d="M47.523,77.174c-1.91,0-3.459-1.548-3.459-3.459c0-16.664,13.557-30.221,30.221-30.221
			c1.911,0,3.46,1.549,3.46,3.459c0,1.911-1.549,3.459-3.46,3.459c-12.849,0-23.302,10.454-23.302,23.302
			C50.983,75.626,49.434,77.174,47.523,77.174z"/>
	</g>
</g>
</svg>
