<?xml version="1.0" encoding="utf-8"?>
<!-- Generator: Adobe Illustrator 16.0.0, SVG Export Plug-In . SVG Version: 6.00 Build 0)  -->
<!DOCTYPE svg PUBLIC "-//W3C//DTD SVG 1.1//EN" "http://www.w3.org/Graphics/SVG/1.1/DTD/svg11.dtd">
<svg version="1.1" id="Layer_1" xmlns="http://www.w3.org/2000/svg" xmlns:xlink="http://www.w3.org/1999/xlink" x="0px" y="0px"
	 width="419.5px" height="256px" viewBox="0 0 419.5 256" enable-background="new 0 0 419.5 256" xml:space="preserve">
<g>
	<g>
		
			<linearGradient id="SVGID_1_" gradientUnits="userSpaceOnUse" x1="209.7866" y1="268.7051" x2="209.7866" y2="73.4369" gradientTransform="matrix(1 0 0 -1 0 257)">
			<stop  offset="0" style="stop-color:#BBC1DE"/>
			<stop  offset="0.5269" style="stop-color:#304367"/>
			<stop  offset="1" style="stop-color:#2C4064"/>
		</linearGradient>
		<path fill="url(#SVGID_1_)" stroke="#6A7493" stroke-miterlimit="10" d="M229.771,109.838c3.676-2.077,7.102-4.739,10.139-7.983
			c3.039-3.245,5.469-6.839,7.299-10.643l16.283,14.39c0.869,0.813,1.588,1.726,2.178,2.695
			c8.693-12.826,15.084-25.158,15.084-34.582c0-39.195-31.773-70.968-70.967-70.968c-39.194,0-70.968,31.773-70.968,70.968
			c0,26.048,47.614,73.225,59.769,93.107c6.134,10.031,11.199,17.818,11.199,17.818s4.843-7.367,11.199-17.818
			c5.511-9.063,18.322-23.771,30.678-39.538c-2.033-0.509-3.969-1.522-5.607-3.056L229.771,109.838z"/>
		<path fill="#FFFFFF" d="M263.491,105.602l-16.283-14.39c-1.83,3.804-4.26,7.398-7.299,10.643
			c-3.037,3.245-6.464,5.906-10.14,7.983l16.285,14.391c1.639,1.534,3.574,2.547,5.607,3.056c4.902-6.258,9.73-12.682,14.006-18.988
			C265.079,107.328,264.359,106.416,263.491,105.602z"/>
	</g>
	<circle fill="#FFFFFF" cx="209.786" cy="73.715" r="42.58"/>
	<path fill="none" stroke="#616AA3" stroke-width="12" stroke-linecap="round" stroke-miterlimit="10" d="M178.916,73.715
		c0-17.05,13.821-30.871,30.87-30.871"/>
	<circle fill="#FFFFFF" cx="209.787" cy="73.715" r="46.089"/>
	<g>
		
			<linearGradient id="SVGID_2_" gradientUnits="userSpaceOnUse" x1="209.7856" y1="224.7959" x2="209.7856" y2="139.9313" gradientTransform="matrix(1 0 0 -1 0 257)">
			<stop  offset="0" style="stop-color:#BBC1DE"/>
			<stop  offset="0.5269" style="stop-color:#304367"/>
			<stop  offset="1" style="stop-color:#2C4064"/>
		</linearGradient>
		<path fill="url(#SVGID_2_)" d="M209.786,115.582c-23.085,0-41.867-18.781-41.867-41.866s18.782-41.867,41.867-41.867
			c23.086,0,41.866,18.782,41.866,41.867C251.652,96.8,232.872,115.582,209.786,115.582z M209.786,38.768
			c-19.271,0-34.947,15.677-34.947,34.948c0,19.27,15.677,34.947,34.947,34.947c19.271,0,34.946-15.678,34.946-34.947
			C244.732,54.445,229.057,38.768,209.786,38.768z"/>
	</g>
	<g>
		<path fill="#6A7493" d="M183.024,77.174c-1.91,0-3.459-1.548-3.459-3.459c0-16.664,13.557-30.221,30.221-30.221
			c1.911,0,3.46,1.549,3.46,3.459c0,1.911-1.549,3.459-3.46,3.459c-12.849,0-23.302,10.454-23.302,23.302
			C186.484,75.626,184.936,77.174,183.024,77.174z"/>
	</g>
</g>
<g>
	<g enable-background="new    ">
		<path fill="#2D4165" d="M49.695,246.146c1.608,1.089,3.365,2.146,5.271,3.174c1.905,1.026,3.167,1.843,3.786,2.449
			c0.618,0.606,0.928,1.466,0.928,2.579c0,0.792-0.365,1.583-1.095,2.375c-0.73,0.792-1.615,1.188-2.654,1.188
			c-0.841,0-1.862-0.272-3.062-0.816c-1.2-0.545-2.611-1.337-4.231-2.376c-1.621-1.039-3.396-2.251-5.326-3.637
			c-3.588,1.83-7.992,2.746-13.213,2.746c-4.231,0-8.023-0.674-11.375-2.022c-3.353-1.349-6.167-3.29-8.443-5.827
			c-2.277-2.536-3.99-5.549-5.141-9.037c-1.15-3.488-1.726-7.286-1.726-11.394c0-4.182,0.6-8.017,1.8-11.506
			c1.2-3.488,2.938-6.458,5.215-8.907c2.276-2.449,5.047-4.323,8.313-5.623c3.266-1.299,6.977-1.948,11.134-1.948
			c5.642,0,10.485,1.145,14.53,3.434c4.045,2.288,7.107,5.542,9.186,9.761c2.079,4.219,3.118,9.173,3.118,14.864
			C56.71,234.257,54.372,241.099,49.695,246.146z M41.048,240.133c1.534-1.756,2.666-3.835,3.396-6.234
			c0.729-2.4,1.095-5.184,1.095-8.351c0-3.983-0.644-7.436-1.93-10.355c-1.287-2.919-3.124-5.127-5.512-6.624
			s-5.128-2.246-8.221-2.246c-2.202,0-4.237,0.415-6.105,1.243c-1.869,0.83-3.477,2.036-4.825,3.619
			c-1.349,1.584-2.413,3.606-3.192,6.068s-1.169,5.227-1.169,8.295c0,6.26,1.459,11.078,4.379,14.455
			c2.919,3.378,6.606,5.066,11.06,5.066c1.831,0,3.711-0.383,5.642-1.15c-1.164-0.866-2.617-1.731-4.361-2.598
			c-1.745-0.866-2.938-1.534-3.582-2.005c-0.644-0.47-0.965-1.138-0.965-2.004c0-0.742,0.309-1.397,0.928-1.967
			c0.618-0.569,1.299-0.854,2.041-0.854C31.979,234.492,35.753,236.372,41.048,240.133z"/>
		<path fill="#2D4165" d="M91.746,248.112v-1.299c-1.213,1.534-2.487,2.821-3.823,3.86s-2.796,1.813-4.379,2.319
			c-1.584,0.507-3.39,0.761-5.419,0.761c-2.449,0-4.646-0.507-6.587-1.521c-1.943-1.015-3.446-2.412-4.509-4.194
			c-1.262-2.152-1.893-5.245-1.893-9.278v-20.078c0-2.028,0.458-3.545,1.374-4.547c0.915-1.002,2.127-1.503,3.637-1.503
			c1.534,0,2.771,0.508,3.711,1.521c0.94,1.015,1.411,2.524,1.411,4.528V234.9c0,2.351,0.198,4.323,0.594,5.92
			c0.396,1.596,1.107,2.845,2.134,3.748s2.418,1.354,4.175,1.354c1.708,0,3.315-0.507,4.825-1.521
			c1.509-1.015,2.61-2.338,3.303-3.972c0.569-1.435,0.854-4.577,0.854-9.427v-12.321c0-2.004,0.47-3.514,1.41-4.528
			c0.94-1.014,2.165-1.521,3.674-1.521c1.509,0,2.722,0.501,3.637,1.503c0.915,1.002,1.373,2.519,1.373,4.547v29.356
			c0,1.931-0.439,3.378-1.317,4.343c-0.878,0.965-2.011,1.447-3.396,1.447c-1.386,0-2.53-0.501-3.433-1.503
			C92.197,251.323,91.746,249.919,91.746,248.112z"/>
		<path fill="#2D4165" d="M116.463,207.918c-1.411,0-2.617-0.433-3.619-1.299c-1.002-0.865-1.503-2.09-1.503-3.674
			c0-1.435,0.513-2.617,1.541-3.545c1.026-0.928,2.22-1.392,3.582-1.392c1.311,0,2.474,0.421,3.488,1.262
			c1.015,0.842,1.522,2.066,1.522,3.675c0,1.559-0.495,2.777-1.485,3.655C118.999,207.479,117.824,207.918,116.463,207.918z
			 M121.474,218.385v29.282c0,2.029-0.482,3.563-1.448,4.603c-0.965,1.039-2.189,1.559-3.674,1.559
			c-1.485,0-2.691-0.532-3.619-1.596c-0.928-1.063-1.392-2.585-1.392-4.565v-28.985c0-2.004,0.464-3.514,1.392-4.528
			c0.928-1.014,2.134-1.521,3.619-1.521c1.484,0,2.709,0.508,3.674,1.521C120.991,215.168,121.474,216.579,121.474,218.385z"/>
		<path fill="#2D4165" d="M168.274,241.284c0,1.262-0.377,2.61-1.132,4.045c-0.755,1.436-1.906,2.802-3.452,4.102
			c-1.546,1.299-3.495,2.344-5.845,3.136c-2.351,0.792-4.999,1.188-7.942,1.188c-6.26,0-11.147-1.824-14.66-5.475
			c-3.514-3.648-5.27-8.542-5.27-14.678c0-4.157,0.804-7.831,2.412-11.023c1.608-3.191,3.934-5.659,6.978-7.404
			c3.043-1.744,6.681-2.616,10.912-2.616c2.622,0,5.029,0.384,7.219,1.15c2.189,0.768,4.045,1.757,5.567,2.97
			c1.521,1.212,2.685,2.505,3.489,3.878c0.804,1.373,1.206,2.653,1.206,3.841c0,1.213-0.452,2.24-1.354,3.081
			c-0.904,0.841-1.999,1.262-3.285,1.262c-0.841,0-1.54-0.216-2.097-0.649c-0.557-0.433-1.182-1.132-1.875-2.097
			c-1.237-1.881-2.53-3.291-3.878-4.231c-1.349-0.939-3.062-1.41-5.14-1.41c-2.994,0-5.407,1.169-7.237,3.507
			c-1.832,2.339-2.747,5.537-2.747,9.595c0,1.905,0.235,3.655,0.706,5.251c0.469,1.596,1.15,2.957,2.041,4.083
			s1.967,1.979,3.229,2.561c1.262,0.582,2.647,0.872,4.157,0.872c2.028,0,3.767-0.47,5.214-1.41s2.728-2.375,3.841-4.306
			c0.618-1.138,1.286-2.028,2.004-2.672c0.717-0.643,1.596-0.965,2.635-0.965c1.237,0,2.264,0.471,3.081,1.41
			C167.866,239.218,168.274,240.22,168.274,241.284z"/>
		<path fill="#2D4165" d="M199.45,249.189l-8.945-14.697l-5.493,5.195v8.054c0,1.955-0.514,3.458-1.54,4.51
			c-1.027,1.052-2.208,1.577-3.544,1.577c-1.559,0-2.784-0.52-3.674-1.559s-1.336-2.573-1.336-4.603v-43.2
			c0-2.251,0.433-3.965,1.299-5.141c0.866-1.175,2.103-1.763,3.711-1.763c1.559,0,2.795,0.532,3.711,1.596
			c0.915,1.064,1.373,2.636,1.373,4.714v24.569l11.394-11.951c1.41-1.484,2.486-2.498,3.229-3.043
			c0.742-0.544,1.645-0.816,2.709-0.816c1.262,0,2.313,0.402,3.155,1.206c0.841,0.805,1.262,1.813,1.262,3.025
			c0,1.484-1.373,3.464-4.12,5.938l-5.381,4.937l10.392,16.33c0.767,1.213,1.317,2.134,1.651,2.765s0.501,1.231,0.501,1.8
			c0,1.609-0.439,2.877-1.317,3.805c-0.878,0.928-2.036,1.392-3.47,1.392c-1.238,0-2.19-0.334-2.858-1.002
			S200.588,250.946,199.45,249.189z"/>
		<path fill="#2D4165" d="M253.822,207.584h-12.025v39.526c0,2.277-0.508,3.966-1.521,5.066c-1.016,1.101-2.326,1.651-3.934,1.651
			c-1.634,0-2.964-0.557-3.99-1.67c-1.027-1.113-1.54-2.796-1.54-5.048v-39.526h-12.024c-1.881,0-3.279-0.414-4.194-1.243
			c-0.916-0.828-1.374-1.923-1.374-3.284c0-1.41,0.477-2.523,1.43-3.341c0.952-0.816,2.332-1.225,4.139-1.225h35.035
			c1.904,0,3.321,0.421,4.249,1.262c0.929,0.842,1.392,1.943,1.392,3.304c0,1.361-0.471,2.456-1.41,3.284
			C257.112,207.17,255.702,207.584,253.822,207.584z"/>
		<path fill="#2D4165" d="M272.453,239.205v8.462c0,2.055-0.482,3.595-1.447,4.621s-2.189,1.54-3.674,1.54
			c-1.461,0-2.66-0.52-3.601-1.559s-1.411-2.573-1.411-4.603v-28.206c0-4.553,1.646-6.829,4.938-6.829
			c1.682,0,2.895,0.532,3.637,1.596c0.742,1.064,1.15,2.636,1.225,4.714c1.212-2.078,2.455-3.649,3.73-4.714
			c1.273-1.063,2.975-1.596,5.103-1.596s4.194,0.532,6.198,1.596c2.004,1.064,3.006,2.475,3.006,4.231
			c0,1.237-0.427,2.258-1.28,3.062c-0.854,0.805-1.776,1.206-2.765,1.206c-0.371,0-1.269-0.229-2.691-0.687
			c-1.423-0.457-2.678-0.687-3.767-0.687c-1.485,0-2.697,0.39-3.638,1.169s-1.67,1.937-2.189,3.471s-0.879,3.358-1.076,5.474
			C272.552,233.583,272.453,236.162,272.453,239.205z"/>
		<path fill="#2D4165" d="M319.401,248.112c-2.449,1.906-4.818,3.335-7.107,4.287c-2.288,0.952-4.855,1.429-7.7,1.429
			c-2.599,0-4.881-0.514-6.848-1.54s-3.483-2.418-4.547-4.176c-1.064-1.756-1.596-3.661-1.596-5.715
			c0-2.771,0.878-5.134,2.635-7.089c1.757-1.954,4.169-3.267,7.237-3.935c0.644-0.148,2.239-0.482,4.788-1.002
			c2.548-0.52,4.731-0.995,6.551-1.429c1.818-0.433,3.791-0.959,5.919-1.577c-0.124-2.672-0.662-4.633-1.614-5.883
			c-0.953-1.249-2.926-1.874-5.92-1.874c-2.573,0-4.509,0.358-5.809,1.076c-1.299,0.718-2.412,1.794-3.34,3.229
			c-0.928,1.436-1.584,2.382-1.967,2.84c-0.384,0.458-1.206,0.687-2.469,0.687c-1.138,0-2.121-0.365-2.949-1.095
			c-0.83-0.729-1.244-1.664-1.244-2.803c0-1.781,0.631-3.513,1.893-5.195s3.229-3.068,5.901-4.157c2.673-1.088,6-1.633,9.983-1.633
			c4.454,0,7.955,0.526,10.504,1.577c2.548,1.052,4.348,2.716,5.399,4.992s1.577,5.295,1.577,9.056c0,2.375-0.006,4.393-0.019,6.05
			s-0.031,3.501-0.056,5.529c0,1.906,0.316,3.892,0.947,5.957c0.631,2.066,0.946,3.396,0.946,3.99c0,1.039-0.489,1.985-1.466,2.839
			c-0.979,0.854-2.085,1.28-3.322,1.28c-1.039,0-2.066-0.488-3.08-1.466C321.616,251.385,320.539,249.969,319.401,248.112z
			 M318.733,233.453c-1.484,0.544-3.644,1.119-6.477,1.726s-4.794,1.052-5.882,1.336c-1.09,0.285-2.129,0.842-3.117,1.67
			c-0.99,0.829-1.485,1.985-1.485,3.471c0,1.534,0.581,2.839,1.745,3.915c1.162,1.076,2.684,1.614,4.564,1.614
			c2.004,0,3.854-0.438,5.549-1.317c1.694-0.878,2.938-2.01,3.729-3.396c0.915-1.534,1.373-4.058,1.373-7.571V233.453z"/>
		<path fill="#2D4165" d="M375.295,241.284c0,1.262-0.377,2.61-1.132,4.045c-0.755,1.436-1.905,2.802-3.451,4.102
			c-1.547,1.299-3.495,2.344-5.846,3.136s-4.998,1.188-7.942,1.188c-6.26,0-11.147-1.824-14.66-5.475
			c-3.514-3.648-5.271-8.542-5.271-14.678c0-4.157,0.804-7.831,2.413-11.023c1.607-3.191,3.934-5.659,6.978-7.404
			c3.043-1.744,6.68-2.616,10.911-2.616c2.622,0,5.029,0.384,7.219,1.15c2.189,0.768,4.045,1.757,5.567,2.97
			c1.521,1.212,2.684,2.505,3.488,3.878c0.804,1.373,1.206,2.653,1.206,3.841c0,1.213-0.451,2.24-1.354,3.081
			s-1.998,1.262-3.284,1.262c-0.842,0-1.541-0.216-2.098-0.649c-0.557-0.433-1.182-1.132-1.874-2.097
			c-1.237-1.881-2.53-3.291-3.878-4.231c-1.35-0.939-3.063-1.41-5.141-1.41c-2.994,0-5.406,1.169-7.237,3.507
			c-1.831,2.339-2.746,5.537-2.746,9.595c0,1.905,0.234,3.655,0.705,5.251c0.47,1.596,1.15,2.957,2.041,4.083
			s1.967,1.979,3.229,2.561c1.263,0.582,2.647,0.872,4.157,0.872c2.028,0,3.767-0.47,5.215-1.41c1.447-0.94,2.728-2.375,3.841-4.306
			c0.618-1.138,1.286-2.028,2.004-2.672c0.718-0.643,1.596-0.965,2.636-0.965c1.236,0,2.264,0.471,3.08,1.41
			C374.887,239.218,375.295,240.22,375.295,241.284z"/>
		<path fill="#2D4165" d="M406.472,249.189l-8.944-14.697l-5.493,5.195v8.054c0,1.955-0.514,3.458-1.54,4.51
			c-1.027,1.052-2.208,1.577-3.545,1.577c-1.559,0-2.783-0.52-3.674-1.559s-1.336-2.573-1.336-4.603v-43.2
			c0-2.251,0.433-3.965,1.299-5.141c0.865-1.175,2.103-1.763,3.711-1.763c1.56,0,2.796,0.532,3.712,1.596
			c0.915,1.064,1.373,2.636,1.373,4.714v24.569l11.394-11.951c1.411-1.484,2.487-2.498,3.229-3.043
			c0.742-0.544,1.645-0.816,2.709-0.816c1.262,0,2.313,0.402,3.155,1.206c0.841,0.805,1.262,1.813,1.262,3.025
			c0,1.484-1.373,3.464-4.12,5.938l-5.381,4.937l10.392,16.33c0.767,1.213,1.317,2.134,1.651,2.765s0.501,1.231,0.501,1.8
			c0,1.609-0.439,2.877-1.317,3.805c-0.879,0.928-2.035,1.392-3.471,1.392c-1.237,0-2.189-0.334-2.857-1.002
			S407.609,250.946,406.472,249.189z"/>
	</g>
</g>
</svg>
