<?xml version="1.0" encoding="utf-8"?>
<!-- Generator: Adobe Illustrator 16.0.0, SVG Export Plug-In . SVG Version: 6.00 Build 0)  -->
<!DOCTYPE svg PUBLIC "-//W3C//DTD SVG 1.1//EN" "http://www.w3.org/Graphics/SVG/1.1/DTD/svg11.dtd">
<svg version="1.1" id="Layer_1" xmlns="http://www.w3.org/2000/svg" xmlns:xlink="http://www.w3.org/1999/xlink" x="0px" y="0px"
	 width="838.56px" height="192px" viewBox="0 0 838.56 192" enable-background="new 0 0 838.56 192" xml:space="preserve">
<g>
	<g>
		<linearGradient id="SVGID_1_" gradientUnits="userSpaceOnUse" x1="79.2925" y1="-11.7051" x2="79.2925" y2="183.5626">
			<stop  offset="0" style="stop-color:#BBC1DE"/>
			<stop  offset="0.5269" style="stop-color:#304367"/>
			<stop  offset="1" style="stop-color:#2C4064"/>
		</linearGradient>
		<path fill="url(#SVGID_1_)" stroke="#6A7493" stroke-miterlimit="10" d="M99.277,109.838c3.676-2.077,7.102-4.739,10.139-7.983
			c3.039-3.245,5.469-6.839,7.299-10.643l16.283,14.39c0.869,0.813,1.588,1.726,2.178,2.695
			c8.693-12.826,15.084-25.158,15.084-34.582c0-39.195-31.773-70.968-70.967-70.968c-39.194,0-70.968,31.773-70.968,70.968
			c0,26.048,47.614,73.225,59.769,93.107c6.134,10.031,11.199,17.818,11.199,17.818s4.843-7.366,11.2-17.818
			c5.51-9.063,18.321-23.77,30.677-39.538c-2.033-0.509-3.969-1.522-5.607-3.056L99.277,109.838z"/>
		<path fill="#FFFFFF" d="M132.998,105.602l-16.283-14.39c-1.83,3.804-4.26,7.398-7.299,10.643
			c-3.037,3.245-6.463,5.906-10.139,7.983l16.285,14.391c1.639,1.534,3.574,2.547,5.607,3.056
			c4.902-6.258,9.73-12.682,14.006-18.988C134.586,107.328,133.867,106.416,132.998,105.602z"/>
	</g>
	<circle fill="#FFFFFF" cx="79.293" cy="73.715" r="42.58"/>
	<path fill="none" stroke="#616AA3" stroke-width="12" stroke-linecap="round" stroke-miterlimit="10" d="M48.423,73.715
		c0-17.05,13.821-30.871,30.87-30.871"/>
	<circle fill="#FFFFFF" cx="79.293" cy="73.715" r="46.089"/>
	<g>
		<linearGradient id="SVGID_2_" gradientUnits="userSpaceOnUse" x1="79.293" y1="32.2041" x2="79.293" y2="117.0687">
			<stop  offset="0" style="stop-color:#BBC1DE"/>
			<stop  offset="0.5269" style="stop-color:#304367"/>
			<stop  offset="1" style="stop-color:#2C4064"/>
		</linearGradient>
		<path fill="url(#SVGID_2_)" d="M79.293,115.582c-23.085,0-41.867-18.781-41.867-41.866c0-23.085,18.782-41.867,41.867-41.867
			c23.086,0,41.867,18.782,41.867,41.867C121.16,96.8,102.379,115.582,79.293,115.582z M79.293,38.768
			c-19.271,0-34.947,15.677-34.947,34.948c0,19.27,15.677,34.947,34.947,34.947c19.27,0,34.947-15.678,34.947-34.947
			C114.24,54.445,98.563,38.768,79.293,38.768z"/>
	</g>
	<g>
		<path fill="#6A7493" d="M52.531,77.174c-1.91,0-3.459-1.548-3.459-3.459c0-16.664,13.557-30.221,30.221-30.221
			c1.911,0,3.46,1.549,3.46,3.459c0,1.911-1.549,3.459-3.46,3.459c-12.849,0-23.302,10.454-23.302,23.302
			C55.991,75.626,54.442,77.174,52.531,77.174z"/>
	</g>
</g>
<g>
	<path fill="#2C4266" d="M252.437,122.3c2.521,1.708,5.276,3.367,8.266,4.977c2.987,1.611,4.967,2.891,5.938,3.842
		c0.969,0.951,1.455,2.299,1.455,4.045c0,1.242-0.573,2.483-1.718,3.726c-1.145,1.242-2.531,1.863-4.161,1.863
		c-1.32,0-2.921-0.428-4.803-1.281c-1.883-0.854-4.095-2.096-6.636-3.726c-2.542-1.63-5.326-3.531-8.354-5.704
		c-5.627,2.871-12.535,4.307-20.723,4.307c-6.636,0-12.583-1.058-17.84-3.172c-5.259-2.115-9.673-5.161-13.243-9.139
		c-3.57-3.978-6.258-8.703-8.062-14.174c-1.805-5.472-2.707-11.428-2.707-17.87c0-6.558,0.94-12.574,2.823-18.045
		c1.882-5.472,4.607-10.128,8.179-13.97c3.569-3.842,7.916-6.781,13.038-8.819c5.123-2.037,10.944-3.056,17.463-3.056
		c8.848,0,16.443,1.795,22.789,5.385c6.345,3.59,11.146,8.693,14.406,15.309c3.26,6.617,4.89,14.388,4.89,23.313
		C263.438,103.654,259.771,114.384,252.437,122.3z M238.873,112.87c2.406-2.755,4.182-6.015,5.326-9.779
		c1.145-3.764,1.718-8.129,1.718-13.097c0-6.248-1.01-11.661-3.027-16.241c-2.019-4.579-4.899-8.042-8.645-10.391
		c-3.745-2.347-8.043-3.521-12.893-3.521c-3.455,0-6.646,0.65-9.576,1.95c-2.93,1.301-5.452,3.193-7.567,5.676
		c-2.115,2.484-3.783,5.656-5.006,9.517c-1.223,3.862-1.834,8.199-1.834,13.01c0,9.818,2.29,17.375,6.869,22.672
		c4.579,5.297,10.361,7.946,17.346,7.946c2.871,0,5.821-0.601,8.848-1.805c-1.824-1.358-4.104-2.716-6.84-4.075
		c-2.735-1.358-4.608-2.406-5.617-3.143c-1.009-0.737-1.513-1.785-1.513-3.144c0-1.164,0.484-2.192,1.455-3.085
		c0.97-0.892,2.037-1.339,3.201-1.339C224.65,104.022,230.568,106.972,238.873,112.87z"/>
	<path fill="#2C4266" d="M318.388,125.385v-2.037c-1.902,2.407-3.9,4.424-5.996,6.054s-4.386,2.843-6.868,3.638
		c-2.484,0.795-5.317,1.193-8.499,1.193c-3.842,0-7.286-0.796-10.332-2.387c-3.047-1.591-5.404-3.784-7.072-6.578
		c-1.979-3.376-2.969-8.227-2.969-14.552V79.225c0-3.182,0.718-5.559,2.153-7.131c1.436-1.571,3.337-2.357,5.705-2.357
		c2.405,0,4.346,0.796,5.82,2.387c1.475,1.592,2.212,3.958,2.212,7.102v25.438c0,3.688,0.311,6.782,0.932,9.285
		c0.62,2.503,1.736,4.463,3.347,5.879c1.61,1.417,3.793,2.125,6.549,2.125c2.678,0,5.2-0.795,7.567-2.387
		c2.367-1.591,4.094-3.667,5.181-6.229c0.893-2.25,1.339-7.179,1.339-14.785V79.225c0-3.144,0.737-5.51,2.212-7.102
		c1.475-1.591,3.396-2.387,5.763-2.387s4.269,0.786,5.705,2.357c1.435,1.572,2.153,3.949,2.153,7.131v46.044
		c0,3.027-0.689,5.297-2.066,6.811c-1.378,1.514-3.153,2.27-5.326,2.27c-2.174,0-3.968-0.786-5.385-2.357
		S318.388,128.219,318.388,125.385z"/>
	<path fill="#2C4266" d="M357.155,62.344c-2.212,0-4.104-0.679-5.675-2.037c-1.572-1.358-2.357-3.279-2.357-5.763
		c0-2.25,0.805-4.104,2.415-5.559c1.61-1.455,3.482-2.183,5.617-2.183c2.057,0,3.88,0.66,5.472,1.979
		c1.591,1.32,2.387,3.241,2.387,5.763c0,2.445-0.776,4.357-2.328,5.734C361.133,61.656,359.289,62.344,357.155,62.344z
		 M365.014,78.759v45.928c0,3.183-0.757,5.588-2.27,7.218c-1.514,1.63-3.435,2.445-5.764,2.445c-2.328,0-4.22-0.835-5.675-2.503
		s-2.183-4.055-2.183-7.16V79.225c0-3.144,0.728-5.51,2.183-7.102c1.455-1.591,3.347-2.387,5.675-2.387
		c2.329,0,4.25,0.796,5.764,2.387C364.257,73.715,365.014,75.927,365.014,78.759z"/>
	<path fill="#2C4266" d="M438.417,114.675c0,1.979-0.593,4.095-1.775,6.345c-1.185,2.251-2.989,4.395-5.414,6.433
		c-2.426,2.037-5.481,3.677-9.168,4.918c-3.688,1.242-7.839,1.863-12.457,1.863c-9.818,0-17.482-2.861-22.992-8.586
		c-5.512-5.724-8.267-13.397-8.267-23.022c0-6.52,1.261-12.282,3.784-17.289c2.522-5.006,6.17-8.877,10.943-11.613
		s10.478-4.104,17.113-4.104c4.113,0,7.888,0.602,11.322,1.804c3.435,1.204,6.345,2.756,8.731,4.657
		c2.387,1.902,4.21,3.929,5.472,6.083c1.261,2.154,1.892,4.162,1.892,6.025c0,1.902-0.708,3.513-2.124,4.832
		C434.06,94.34,432.343,95,430.325,95c-1.319,0-2.415-0.339-3.288-1.019c-0.874-0.679-1.854-1.775-2.94-3.289
		c-1.94-2.949-3.968-5.161-6.083-6.636c-2.115-1.475-4.802-2.212-8.062-2.212c-4.696,0-8.479,1.833-11.351,5.5
		c-2.873,3.667-4.308,8.684-4.308,15.047c0,2.989,0.368,5.734,1.105,8.237s1.805,4.638,3.202,6.403
		c1.396,1.767,3.085,3.105,5.063,4.017c1.979,0.912,4.152,1.368,6.52,1.368c3.182,0,5.908-0.737,8.179-2.212
		c2.271-1.474,4.278-3.725,6.024-6.752c0.97-1.785,2.018-3.182,3.144-4.191c1.125-1.009,2.503-1.513,4.133-1.513
		c1.94,0,3.551,0.737,4.832,2.212C437.776,111.435,438.417,113.007,438.417,114.675z"/>
	<path fill="#2C4266" d="M487.313,127.074l-14.028-23.051l-8.615,8.149v12.631c0,3.066-0.806,5.424-2.416,7.073
		s-3.463,2.474-5.559,2.474c-2.444,0-4.365-0.815-5.763-2.445s-2.096-4.035-2.096-7.218V56.931c0-3.531,0.679-6.218,2.037-8.062
		c1.358-1.843,3.298-2.765,5.821-2.765c2.445,0,4.385,0.835,5.821,2.503c1.435,1.669,2.153,4.133,2.153,7.393v38.535l17.87-18.744
		c2.213-2.328,3.9-3.919,5.064-4.773c1.164-0.853,2.581-1.281,4.25-1.281c1.979,0,3.628,0.631,4.947,1.892
		c1.319,1.261,1.979,2.843,1.979,4.744c0,2.328-2.154,5.433-6.462,9.313l-8.44,7.742l16.299,25.612
		c1.203,1.902,2.066,3.347,2.591,4.337c0.523,0.989,0.786,1.931,0.786,2.823c0,2.523-0.689,4.511-2.067,5.967
		c-1.378,1.455-3.192,2.183-5.442,2.183c-1.94,0-3.435-0.524-4.481-1.571C490.515,131.73,489.098,129.83,487.313,127.074z"/>
	<path fill="#2C4266" d="M572.59,61.82h-18.86v61.994c0,3.571-0.796,6.219-2.387,7.945c-1.592,1.727-3.647,2.59-6.17,2.59
		c-2.562,0-4.647-0.873-6.258-2.619c-1.61-1.747-2.415-4.385-2.415-7.917V61.82h-18.86c-2.949,0-5.143-0.649-6.578-1.95
		c-1.436-1.299-2.153-3.017-2.153-5.151c0-2.212,0.747-3.958,2.241-5.239c1.493-1.281,3.657-1.921,6.49-1.921h54.95
		c2.987,0,5.21,0.66,6.665,1.979c1.455,1.32,2.183,3.047,2.183,5.181c0,2.135-0.737,3.852-2.212,5.151
		C577.75,61.171,575.538,61.82,572.59,61.82z"/>
	<path fill="#2C4266" d="M601.812,111.415v13.272c0,3.222-0.757,5.637-2.271,7.247c-1.513,1.61-3.434,2.416-5.763,2.416
		c-2.29,0-4.172-0.815-5.646-2.445s-2.212-4.035-2.212-7.218v-44.24c0-7.14,2.581-10.71,7.742-10.71c2.639,0,4.54,0.835,5.705,2.503
		c1.164,1.669,1.804,4.133,1.921,7.393c1.9-3.259,3.851-5.724,5.85-7.393c1.998-1.668,4.666-2.503,8.004-2.503
		c3.337,0,6.578,0.835,9.721,2.503c3.144,1.669,4.715,3.881,4.715,6.636c0,1.941-0.669,3.542-2.008,4.802
		c-1.339,1.261-2.785,1.892-4.337,1.892c-0.582,0-1.989-0.358-4.22-1.077c-2.232-0.718-4.201-1.077-5.908-1.077
		c-2.329,0-4.23,0.611-5.705,1.834c-1.475,1.222-2.619,3.037-3.435,5.442c-0.814,2.407-1.378,5.268-1.688,8.586
		C601.966,102.596,601.812,106.642,601.812,111.415z"/>
	<path fill="#2C4266" d="M675.446,125.385c-3.842,2.989-7.558,5.23-11.146,6.724c-3.59,1.493-7.617,2.241-12.079,2.241
		c-4.074,0-7.654-0.806-10.739-2.416s-5.463-3.793-7.131-6.549c-1.669-2.755-2.503-5.743-2.503-8.964
		c0-4.346,1.377-8.052,4.133-11.118c2.755-3.065,6.538-5.123,11.351-6.17c1.009-0.233,3.512-0.757,7.509-1.572
		s7.422-1.562,10.274-2.241c2.853-0.679,5.946-1.504,9.284-2.474c-0.194-4.191-1.038-7.266-2.532-9.226
		c-1.494-1.959-4.589-2.94-9.284-2.94c-4.036,0-7.072,0.563-9.109,1.688c-2.038,1.126-3.784,2.814-5.239,5.064
		c-1.455,2.251-2.483,3.735-3.085,4.453c-0.603,0.718-1.892,1.077-3.871,1.077c-1.785,0-3.328-0.572-4.628-1.717
		c-1.301-1.145-1.95-2.61-1.95-4.395c0-2.794,0.99-5.51,2.969-8.149c1.979-2.639,5.064-4.812,9.256-6.52
		c4.191-1.707,9.41-2.561,15.658-2.561c6.985,0,12.477,0.825,16.474,2.474c3.996,1.65,6.819,4.259,8.47,7.83
		c1.648,3.571,2.474,8.305,2.474,14.203c0,3.725-0.01,6.889-0.029,9.488c-0.02,2.6-0.049,5.492-0.087,8.673
		c0,2.989,0.494,6.103,1.484,9.343c0.989,3.241,1.484,5.326,1.484,6.258c0,1.63-0.767,3.114-2.3,4.453
		c-1.533,1.339-3.27,2.008-5.21,2.008c-1.63,0-3.24-0.767-4.831-2.299C678.919,130.518,677.231,128.296,675.446,125.385z
		 M674.398,102.393c-2.328,0.854-5.714,1.756-10.157,2.707c-4.444,0.952-7.52,1.65-9.227,2.096c-1.708,0.447-3.338,1.32-4.89,2.62
		c-1.553,1.3-2.328,3.114-2.328,5.442c0,2.407,0.911,4.453,2.736,6.141c1.823,1.688,4.21,2.532,7.159,2.532
		c3.144,0,6.044-0.688,8.702-2.066c2.658-1.377,4.608-3.152,5.851-5.326c1.436-2.406,2.153-6.364,2.153-11.875V102.393z"/>
	<path fill="#2C4266" d="M763.111,114.675c0,1.979-0.593,4.095-1.775,6.345c-1.185,2.251-2.989,4.395-5.414,6.433
		c-2.426,2.037-5.481,3.677-9.168,4.918c-3.688,1.242-7.839,1.863-12.457,1.863c-9.818,0-17.482-2.861-22.992-8.586
		c-5.512-5.724-8.267-13.397-8.267-23.022c0-6.52,1.261-12.282,3.784-17.289c2.522-5.006,6.17-8.877,10.943-11.613
		s10.478-4.104,17.113-4.104c4.113,0,7.888,0.602,11.322,1.804c3.435,1.204,6.345,2.756,8.731,4.657
		c2.387,1.902,4.21,3.929,5.472,6.083c1.261,2.154,1.892,4.162,1.892,6.025c0,1.902-0.708,3.513-2.124,4.832
		C758.754,94.34,757.037,95,755.02,95c-1.319,0-2.415-0.339-3.288-1.019c-0.874-0.679-1.854-1.775-2.94-3.289
		c-1.94-2.949-3.968-5.161-6.083-6.636c-2.115-1.475-4.802-2.212-8.062-2.212c-4.696,0-8.479,1.833-11.351,5.5
		c-2.873,3.667-4.308,8.684-4.308,15.047c0,2.989,0.368,5.734,1.105,8.237s1.805,4.638,3.202,6.403
		c1.396,1.767,3.085,3.105,5.063,4.017c1.979,0.912,4.152,1.368,6.52,1.368c3.182,0,5.908-0.737,8.179-2.212
		c2.271-1.474,4.278-3.725,6.024-6.752c0.97-1.785,2.018-3.182,3.144-4.191c1.125-1.009,2.503-1.513,4.133-1.513
		c1.94,0,3.551,0.737,4.832,2.212C762.471,111.435,763.111,113.007,763.111,114.675z"/>
	<path fill="#2C4266" d="M812.007,127.074l-14.028-23.051l-8.615,8.149v12.631c0,3.066-0.806,5.424-2.416,7.073
		s-3.463,2.474-5.559,2.474c-2.444,0-4.365-0.815-5.763-2.445s-2.096-4.035-2.096-7.218V56.931c0-3.531,0.679-6.218,2.037-8.062
		c1.358-1.843,3.298-2.765,5.821-2.765c2.445,0,4.385,0.835,5.821,2.503c1.435,1.669,2.153,4.133,2.153,7.393v38.535l17.87-18.744
		c2.213-2.328,3.9-3.919,5.064-4.773c1.164-0.853,2.581-1.281,4.25-1.281c1.979,0,3.628,0.631,4.947,1.892
		c1.319,1.261,1.979,2.843,1.979,4.744c0,2.328-2.154,5.433-6.462,9.313l-8.44,7.742l16.299,25.612
		c1.203,1.902,2.066,3.347,2.591,4.337c0.523,0.989,0.786,1.931,0.786,2.823c0,2.523-0.689,4.511-2.067,5.967
		c-1.378,1.455-3.192,2.183-5.442,2.183c-1.94,0-3.435-0.524-4.481-1.571C815.209,131.73,813.792,129.83,812.007,127.074z"/>
</g>
</svg>
